<?xml version="1.0" encoding="utf-8"?>
<!-- Generator: Adobe Illustrator 16.0.3, SVG Export Plug-In . SVG Version: 6.00 Build 0)  -->
<!DOCTYPE svg PUBLIC "-//W3C//DTD SVG 1.1//EN" "http://www.w3.org/Graphics/SVG/1.1/DTD/svg11.dtd">
<svg version="1.1" id="Layer_1" xmlns="http://www.w3.org/2000/svg" xmlns:xlink="http://www.w3.org/1999/xlink" x="0px" y="0px"
	 width="2340px" height="418px" viewBox="0 0 2340 418" enable-background="new 0 0 2340 418" xml:space="preserve">
<g>
	<path fill-rule="evenodd" clip-rule="evenodd" fill="#007CC1" d="M202,418c-5.881-0.771-11.75-1.649-17.644-2.294
		c-24.409-2.668-47.396-9.942-69.355-20.825c-3.735-1.852-3.419-4.011-2.563-7.194c22.91-85.195,45.769-170.404,68.612-255.617
		c8.819-32.897,17.578-65.812,26.375-98.715c0.37-1.383,0.854-2.734,1.721-5.482c3.378,12.391,6.419,23.371,9.364,34.377
		c23.829,89.077,47.639,178.16,71.457,267.239c5.235,19.58,10.386,39.184,15.809,58.711c0.94,3.387,0.454,5.09-2.76,6.69
		c-21.938,10.926-44.94,18.189-69.36,20.826c-5.898,0.637-11.77,1.517-17.654,2.284C211.333,418,206.667,418,202,418z"/>
	<path fill-rule="evenodd" clip-rule="evenodd" fill="#007CC1" d="M197,0c-32.137,119.821-64.274,239.643-96.411,359.464
		c-0.276,0.003-0.553,0.007-0.829,0.011c-4.048-14.987-8.127-29.967-12.14-44.965C69.07,245.18,50.565,175.836,31.924,106.53
		c-0.994-3.694-0.689-6.533,1.442-9.759c33.271-50.355,79.467-81.445,138.65-93.144c6.331-1.252,12.855-1.514,19.275-2.345
		C192.889,1.076,194.432,0.439,196,0C196.333,0,196.667,0,197,0z"/>
	<path fill-rule="evenodd" clip-rule="evenodd" fill="#007CC1" d="M222,0c4.707,0.763,9.398,1.641,14.123,2.269
		c49.795,6.618,91.722,28.608,125.787,65.284c8.676,9.341,15.843,20.11,23.356,30.475c1.305,1.8,1.718,5.078,1.127,7.297
		c-22.231,83.62-44.629,167.197-67.016,250.776c-0.297,1.109-0.746,2.178-1.51,4.373c-2.957-10.756-5.711-20.545-8.339-30.368
		c-24.804-92.732-49.573-185.474-74.387-278.202C230.506,34.581,225.718,17.3,221,0C221.333,0,221.667,0,222,0z"/>
	<path fill-rule="evenodd" clip-rule="evenodd" fill="#007CC1" d="M2340,303c-2.084-1.485-4.598-2.612-6.189-4.511
		c-29.434-35.104-58.753-70.301-88.104-105.474c-7.684-9.209-15.38-18.409-23.095-27.593c-1.023-1.219-2.188-2.319-4.312-4.549
		c-0.275,3.401-0.58,5.422-0.581,7.442c-0.028,41.656-0.102,83.313,0.083,124.969c0.022,4.948-1.146,6.685-6.357,6.536
		c-12.041-0.343-12.049-0.075-12.049-12.202c0-54.986,0-109.973,0-164.959c0-1.167-0.189-2.374,0.052-3.488
		c0.287-1.328,0.944-2.576,1.44-3.858c1.208,0.646,2.739,1.015,3.572,1.982c6.627,7.704,13.129,15.514,19.653,23.305
		c30.59,36.524,61.173,73.055,91.769,109.574c1.027,1.227,2.168,2.359,4.227,4.585c0.152-3.181,0.32-5.06,0.321-6.938
		c0.015-41.157,0.091-82.313-0.094-123.47c-0.022-4.864,1.391-6.487,6.195-6.14c4.461,0.322,8.977-0.112,13.468-0.213
		C2340,179.667,2340,241.333,2340,303z"/>
	<path fill-rule="evenodd" clip-rule="evenodd" fill="#007CC1" d="M0,202c0.799-6.546,1.808-13.074,2.355-19.642
		c1.173-14.085,8.966-42.678,15.601-55.484C40.2,209.91,62.231,292.151,84.262,374.393c-0.249,0.25-0.498,0.5-0.746,0.75
		c-3.745-3.054-7.604-5.978-11.217-9.181c-36.937-32.736-59.874-73.417-68.695-121.96c-1.331-7.326-1.519-14.856-2.342-22.281
		C1.048,219.791,0.432,217.906,0,216C0,211.333,0,206.667,0,202z"/>
	<path fill-rule="evenodd" clip-rule="evenodd" fill="#007CC1" d="M647.467,158c-19.383,49.298-38.219,97.202-57.054,145.107
		c-0.477,0.163-0.953,0.326-1.43,0.49c-0.945-1.766-2.267-3.428-2.781-5.311c-13.309-48.716-26.532-97.454-39.772-146.188
		c-2.568-9.457-5.164-18.906-7.704-28.371c-0.417-1.555-0.604-3.172-1.012-5.38c5.623,0,10.787-0.365,15.839,0.228
		c1.481,0.173,3.328,2.876,3.848,4.742c4.859,17.442,9.462,34.956,14.146,52.447c6.36,23.746,12.724,47.491,19.104,71.231
		c0.424,1.579,1.011,3.114,1.522,4.67c0.478,0.127,0.955,0.254,1.433,0.38c17.928-45.072,35.855-90.145,53.784-135.218
		c0.533-0.082,1.067-0.164,1.602-0.247c18.008,44.841,36.016,89.682,54.572,135.887c1.007-2.271,1.615-3.272,1.908-4.357
		c10.979-40.738,21.942-81.48,32.869-122.233c2.024-7.552,1.947-7.572,9.888-7.574c11.065-0.003,11.004-0.02,8.057,10.828
		c-15.241,56.107-30.448,112.226-45.668,168.34c-0.174,0.641-0.217,1.373-0.565,1.899c-0.838,1.266-1.821,2.434-2.746,3.642
		c-0.873-1.071-2.071-2.011-2.567-3.234c-5.875-14.487-11.64-29.02-17.443-43.537c-12.288-30.738-24.576-61.478-36.889-92.206
		C649.764,162.429,648.896,160.914,647.467,158z"/>
	<path fill-rule="evenodd" clip-rule="evenodd" fill="#007CC1" d="M1772.839,114.622c26.359,45.75,52.719,91.5,79.566,138.098
		c1.679-2.543,2.933-4.209,3.944-6.012c23.646-42.094,47.251-84.211,70.938-126.283c1.143-2.028,2.958-3.678,4.46-5.503
		c0.624,2.377,1.696,4.735,1.803,7.136c1.406,31.591,2.687,63.187,3.973,94.783c0.386,9.48,0.685,18.965,1.034,28.446
		c0.625,16.965,1.214,33.932,1.932,50.893c0.116,2.729-1.008,3.563-3.479,3.523c-3.831-0.063-7.668-0.119-11.496,0.021
		c-2.969,0.108-4.102-1.012-4.149-4.068c-0.192-12.487-0.685-24.97-0.907-37.456c-0.478-26.814-0.843-53.63-1.307-80.443
		c-0.034-2.002-0.481-3.996-0.925-7.471c-1.771,2.699-2.713,4.006-3.525,5.389c-19.649,33.448-39.281,66.907-58.926,100.359
		c-3.688,6.281-4.248,6.288-7.867,0.152c-19.628-33.27-39.247-66.545-58.885-99.809c-0.975-1.652-2.099-3.217-4.257-4.603
		c-0.305,4.038-0.821,8.073-0.881,12.114c-0.489,33.646-0.879,67.295-1.345,100.942c-0.051,3.658-0.515,7.311-0.565,10.969
		c-0.043,3.076-1.538,4.155-4.397,3.899c-0.661-0.06-1.333,0.012-1.999-0.005c-14.519-0.343-12.378,2.544-12.024-12.435
		c0.63-26.62,1.896-53.226,2.9-79.838c0.993-26.279,1.953-52.561,3.027-78.836c0.186-4.531,0.87-9.041,1.324-13.562
		C1771.483,114.891,1772.161,114.756,1772.839,114.622z"/>
	<path fill-rule="evenodd" clip-rule="evenodd" fill="#007CC1" d="M1025.498,162.629c0,1.972,0,3.942,0,5.914
		c0,41.494,0.002,82.989-0.002,124.483c-0.001,6.654-0.014,6.654-6.529,6.671c-12.534,0.032-12.534,0.032-12.534-12.598
		c0-54.826,0-109.652,0-164.478c0-1-0.185-2.045,0.044-2.989c0.356-1.475,0.993-2.881,1.511-4.315
		c1.338,0.701,3.047,1.087,3.956,2.154c8.967,10.525,17.797,21.167,26.673,31.771c28.124,33.599,56.248,67.197,84.389,100.783
		c1.126,1.344,2.413,2.554,4.639,4.89c0.281-3.412,0.593-5.438,0.594-7.464c0.028-40.828,0.02-81.655,0.024-122.483
		c0.001-6.646,0.016-6.646,6.51-6.665c11.82-0.035,11.82-0.035,11.82,11.812c0,55.492,0.002,110.985-0.012,166.478
		c-0.001,1.906-0.17,3.813-0.26,5.719c-0.503,0.228-1.005,0.454-1.508,0.682c-39.26-47.006-78.52-94.012-117.779-141.018
		C1026.521,162.192,1026.01,162.411,1025.498,162.629z"/>
	<path fill-rule="evenodd" clip-rule="evenodd" fill="#007CC1" d="M1213.121,208.644c0-27.812,0.068-55.624-0.074-83.436
		c-0.021-4.121,0.924-5.909,5.471-6.007c18.268-0.394,36.651-2.803,54.765-1.439c35.956,2.708,65.565,17.734,81.984,51.675
		c21.912,45.298,3.104,112.034-61.196,128.067c-15.424,3.846-31.12,4.975-47.007,3.456c-9.586-0.917-19.203-1.64-28.823-2.007
		c-4.709-0.18-5.194-2.521-5.18-6.373C1213.172,264.602,1213.121,236.623,1213.121,208.644z M1231.583,208.834
		c0,23.148,0.112,46.299-0.098,69.445c-0.04,4.445,1.808,6.053,5.737,6.068c14.271,0.058,28.635,1.084,42.789-0.191
		c19.815-1.785,36.798-10.371,48.741-26.863c13.732-18.966,16.882-40.53,13.644-63.181c-3.898-27.268-18.963-45.88-44.753-55.656
		c-20.213-7.662-41.118-6.517-62.061-4.615c-3.415,0.311-4.068,2.432-4.055,5.548
		C1231.632,162.536,1231.585,185.686,1231.583,208.834z"/>
	<path fill-rule="evenodd" clip-rule="evenodd" fill="#007CC1" d="M1663.746,224.064c17.681,25.441,34.831,50.121,52.517,75.57
		c-7.551,0-14.171,0.269-20.74-0.191c-1.617-0.113-3.413-2.364-4.545-4.028c-14.142-20.793-28.268-41.6-42.159-62.561
		c-2.607-3.935-5.404-5.511-10.181-5.191c-6.963,0.466-14.001,0.335-20.975-0.077c-4.733-0.28-6.341,1.048-6.275,6.014
		c0.268,20.158,0.001,40.323,0.196,60.483c0.043,4.374-1.268,6.125-5.691,5.668c-2.803-0.29-5.681-0.271-8.488-0.004
		c-4.075,0.388-5.059-1.369-5.044-5.215c0.126-33.159,0.072-66.318,0.072-99.478c0-23.161,0.081-46.323-0.075-69.483
		c-0.027-4.164,0.556-6.313,5.537-6.407c16.276-0.309,32.566-1.935,48.809-1.499c13.762,0.37,26.694,4.905,38.097,13.232
		c28.103,20.525,26.413,73.255-13.007,89.723C1669.384,221.627,1666.99,222.674,1663.746,224.064z M1611.504,173.019
		c0,11.321,0.001,22.643-0.001,33.964c-0.001,2.209-0.159,4.161,3.101,4.505c13.293,1.404,26.553,1.931,39.665-1.214
		c17.159-4.114,28.49-16.864,29.141-32.451c0.902-21.647-7.644-35.1-26.249-41.273c-13.992-4.643-28.248-3.3-42.453-1.513
		c-1.237,0.155-3.023,2.929-3.062,4.521C1611.378,150.706,1611.504,161.863,1611.504,173.019z"/>
	<path fill-rule="evenodd" clip-rule="evenodd" fill="#007CC1" d="M399.89,127.809c20.624,47.463,23.133,95.865,7.432,144.908
		c-13.25,41.386-37.585,75.103-71.793,101.629c-0.489-0.219-0.979-0.438-1.469-0.657
		C356.003,291.729,377.946,209.769,399.89,127.809z"/>
	<path fill-rule="evenodd" clip-rule="evenodd" fill="#007CC1" d="M806.26,183.395c0-19.829,0.114-39.659-0.089-59.485
		c-0.044-4.366,1.234-5.757,5.66-5.705c12.771,0.149,12.772-0.033,12.772,12.955c0,34.325-0.146,68.651,0.127,102.975
		c0.053,6.734,1.044,13.638,2.783,20.148c4.373,16.371,15.098,26.468,31.762,30.339c10.966,2.547,21.791,2.342,32.521-0.77
		c18.552-5.381,31.228-21.628,31.523-41.643c0.561-37.971,0.557-75.949,0.805-113.925c0.075-11.43-1.142-9.913,9.747-9.959
		c9.995-0.042,8.686-0.901,8.695,8.896c0.036,36.658,0.296,73.319-0.106,109.973c-0.212,19.357-6.499,36.581-21.514,49.783
		c-10.511,9.241-23.082,13.98-36.716,15.342c-13.123,1.311-26.288,0.686-38.874-4.091c-21.978-8.339-34.085-24.694-37.879-47.462
		c-0.978-5.865-1.111-11.915-1.166-17.884C806.162,216.387,806.26,199.89,806.26,183.395z"/>
	<path fill-rule="evenodd" clip-rule="evenodd" fill="#007CC1" d="M1424.198,208.778c0-27.995,0.103-55.99-0.099-83.983
		c-0.034-4.843,1.019-6.657,6.309-6.614c31.158,0.249,62.32,0.217,93.479,0.021c4.707-0.029,5.997,1.467,5.837,5.994
		c-0.432,12.181,1.521,10.35-10.277,10.396c-23.661,0.093-47.324,0.131-70.984-0.06c-4.566-0.037-6.03,1.318-5.968,5.948
		c0.241,17.66,0.23,35.327,0.005,52.987c-0.058,4.545,1.26,6.049,5.911,6.006c22.327-0.21,44.657-0.007,66.985-0.171
		c4.085-0.03,5.594,1.144,5.476,5.351c-0.37,13.104,1.526,10.981-11.196,11.056c-20.328,0.12-40.66,0.158-60.986-0.057
		c-4.843-0.052-6.256,1.561-6.194,6.324c0.238,18.493,0.225,36.993,0.006,55.486c-0.054,4.537,1.247,6.047,5.905,6.011
		c25.16-0.199,50.324,0.027,75.483-0.199c4.728-0.043,5.997,1.456,5.834,5.979c-0.436,12.076,1.564,10.387-10.278,10.418
		c-29.66,0.077-59.322-0.102-88.981,0.145c-5.208,0.043-6.406-1.629-6.369-6.556
		C1424.307,265.101,1424.198,236.939,1424.198,208.778z"/>
	<path fill-rule="evenodd" clip-rule="evenodd" fill="#007CC1" d="M2150.818,299.648c-6.072,0-11.708,0.254-17.291-0.178
		c-1.396-0.108-3.155-2.185-3.846-3.754c-6.029-13.699-11.982-27.437-17.654-41.286c-1.624-3.964-3.796-5.563-8.15-5.531
		c-23.82,0.176-47.643,0.16-71.463,0.012c-4.113-0.026-6.269,1.438-7.836,5.242c-5.701,13.838-11.799,27.512-17.553,41.328
		c-1.263,3.03-2.813,4.504-6.257,4.283c-4.454-0.285-8.94-0.069-14.324-0.069c0.731-2.126,1.13-3.623,1.747-5.023
		c25.746-58.455,51.503-116.905,77.333-175.323c0.658-1.488,2.149-2.608,3.253-3.9c0.974,1.251,2.256,2.365,2.878,3.771
		c26.15,59.184,52.243,118.393,78.329,177.605C2150.297,297.535,2150.434,298.322,2150.818,299.648z M2069.078,154.627
		c-0.557-0.015-1.112-0.03-1.669-0.046c-11.121,25.981-22.243,51.962-33.575,78.436c23.358,0,45.655,0,68.813,0
		C2091.251,206.404,2080.164,180.516,2069.078,154.627z"/>
</g>
</svg>
